<?xml version="1.0" standalone="no"?><!DOCTYPE svg PUBLIC "-//W3C//DTD SVG 1.1//EN" "http://www.w3.org/Graphics/SVG/1.1/DTD/svg11.dtd"><svg t="1653917843284" class="icon" viewBox="0 0 1025 1024" version="1.1" xmlns="http://www.w3.org/2000/svg" p-id="3497" xmlns:xlink="http://www.w3.org/1999/xlink" width="200.1953125" height="200"><defs><style type="text/css">@font-face { font-family: feedback-iconfont; src: url("//at.alicdn.com/t/font_1031158_u69w8yhxdu.woff2?t=1630033759944") format("woff2"), url("//at.alicdn.com/t/font_1031158_u69w8yhxdu.woff?t=1630033759944") format("woff"), url("//at.alicdn.com/t/font_1031158_u69w8yhxdu.ttf?t=1630033759944") format("truetype"); }
</style></defs><path d="M517.139006 191.060092a16.192219 16.192219 0 0 1-16.19222-16.192219V106.872696a16.192219 16.192219 0 0 1 32.384439 0v67.995177a16.192219 16.192219 0 0 1-16.192219 16.192219z" fill="#6E6E96" p-id="3498"></path><path d="M514.815422 119.490483c-32.61113 0-59.138033-26.530951-59.138033-59.138033C455.677389 27.74132 482.20834 1.214416 514.815422 1.214416s59.138033 26.530951 59.138033 59.138034-26.526903 59.138033-59.138033 59.138033z m0-85.891628a26.781931 26.781931 0 0 0-26.753594 26.753595c0 14.751112 12.002483 26.753594 26.753594 26.753594s26.753594-12.002483 26.753595-26.753594a26.781931 26.781931 0 0 0-26.753595-26.753595z" fill="#6E6E96" p-id="3499"></path><path d="M279.501994 287.569768a16.151739 16.151739 0 0 1-11.451947-4.744321L219.975348 234.742652a16.192219 16.192219 0 0 1 22.899846-22.899846L290.953942 259.925601a16.192219 16.192219 0 0 1-11.451948 27.644167z" fill="#6E6E96" p-id="3500"></path><path d="M196.881195 251.181803c-32.61113 0-59.138033-26.530951-59.138033-59.138033s26.530951-59.138033 59.138033-59.138034 59.138033 26.530951 59.138033 59.138034S229.492325 251.181803 196.881195 251.181803z m0-85.891628c-14.75516 0-26.753594 12.002483-26.753594 26.753595s12.002483 26.753594 26.753594 26.753594 26.753594-12.002483 26.753595-26.753594-11.998435-26.753594-26.753595-26.753595z" fill="#6E6E96" p-id="3501"></path><path d="M179.709347 523.842584H111.714169a16.192219 16.192219 0 0 1 0-32.384438h67.995178a16.192219 16.192219 0 0 1 0 32.384438z" fill="#6E6E96" p-id="3502"></path><path d="M65.189875 569.107934c-32.607082 0-59.129937-26.526903-59.129937-59.133985s26.526903-59.133985 59.129937-59.133986c32.607082 0 59.133985 26.526903 59.133985 59.133986s-26.526903 59.133985-59.133985 59.133985z m0-85.883532a26.773835 26.773835 0 0 0-26.745498 26.749547 26.777883 26.777883 0 0 0 26.745498 26.749546 26.777883 26.777883 0 0 0 26.749546-26.749546 26.777883 26.777883 0 0 0-26.749546-26.749547z" fill="#6E6E96" p-id="3503"></path><path d="M228.136227 809.554295a16.192219 16.192219 0 0 1-11.451948-27.640119l48.078748-48.078747a16.192219 16.192219 0 0 1 22.899846 22.895798l-48.078747 48.078748a16.119354 16.119354 0 0 1-11.447899 4.74432z" fill="#6E6E96" p-id="3504"></path><path d="M196.881195 887.046209c-32.61113 0-59.138033-26.530951-59.138033-59.138033s26.530951-59.133985 59.138033-59.133986 59.138033 26.530951 59.138033 59.133986c0 32.607082-26.526903 59.138033-59.138033 59.138033z m0-85.891628a26.781931 26.781931 0 0 0-26.753594 26.749547c0 14.75516 12.002483 26.753594 26.753594 26.753594s26.753594-12.002483 26.753595-26.753594a26.781931 26.781931 0 0 0-26.753595-26.749547z" fill="#6E6E96" p-id="3505"></path><path d="M512.487791 929.275517a16.192219 16.192219 0 0 1-16.19222-16.19222l0.004048-67.995177a16.192219 16.192219 0 0 1 32.384439 0l-0.004048 67.995177a16.192219 16.192219 0 0 1-16.192219 16.19222z" fill="#6E6E96" p-id="3506"></path><path d="M514.815422 1018.737529c-32.61113 0-59.138033-26.530951-59.138033-59.138033s26.530951-59.133985 59.138033-59.133986 59.138033 26.530951 59.138033 59.133986c0 32.607082-26.526903 59.138033-59.138033 59.138033z m0-85.891628a26.781931 26.781931 0 0 0-26.753594 26.749547c0 14.75516 12.002483 26.753594 26.753594 26.753594s26.753594-12.002483 26.753595-26.753594a26.781931 26.781931 0 0 0-26.753595-26.749547z" fill="#6E6E96" p-id="3507"></path><path d="M798.207597 812.849412a16.139595 16.139595 0 0 1-11.447899-4.744321l-48.078747-48.082795a16.192219 16.192219 0 1 1 22.895798-22.895798l48.078747 48.082795a16.192219 16.192219 0 0 1-11.447899 27.640119z" fill="#6E6E96" p-id="3508"></path><path d="M832.749649 887.046209c-32.61113 0-59.138033-26.530951-59.138033-59.138033s26.530951-59.133985 59.138033-59.133986 59.138033 26.530951 59.138033 59.133986c0 32.607082-26.526903 59.138033-59.138033 59.138033z m0-85.891628a26.781931 26.781931 0 0 0-26.753594 26.749547c0 14.75516 12.002483 26.753594 26.753594 26.753594s26.753594-12.002483 26.753595-26.753594a26.781931 26.781931 0 0 0-26.753595-26.749547z" fill="#6E6E96" p-id="3509"></path><path d="M917.916675 528.497847l-67.995177-0.008096a16.192219 16.192219 0 0 1 0-32.384438l67.995177 0.004048a16.192219 16.192219 0 0 1 0 32.388486z" fill="#6E6E96" p-id="3510"></path><path d="M964.436921 569.111982c-32.61113 0-59.138033-26.530951-59.138033-59.138033s26.530951-59.138033 59.138033-59.138034 59.133985 26.530951 59.133985 59.138034-26.526903 59.138033-59.133985 59.138033z m0-85.891628c-14.75516 0-26.753594 12.002483-26.753594 26.753595s12.002483 26.753594 26.753594 26.753594 26.749546-12.002483 26.749546-26.753594-11.998435-26.753594-26.749546-26.753595z" fill="#6E6E96" p-id="3511"></path><path d="M753.411822 290.85274a16.192219 16.192219 0 0 1-11.447899-27.644166l48.082796-48.078748a16.192219 16.192219 0 1 1 22.895798 22.899847l-48.082796 48.078747a16.139595 16.139595 0 0 1-11.447899 4.74432z" fill="#6E6E96" p-id="3512"></path><path d="M832.745601 251.177755c-32.607082 0-59.133985-26.526903-59.133985-59.133985s26.530951-59.133985 59.133985-59.133985 59.133985 26.526903 59.133985 59.133985-26.526903 59.133985-59.133985 59.133985z m0-85.883532c-14.751112 0-26.749546 11.998435-26.749546 26.749547s12.002483 26.749546 26.749546 26.749546 26.749546-11.998435 26.749546-26.749546-11.998435-26.749546-26.749546-26.749547z" fill="#6E6E96" p-id="3513"></path><path d="M525.76541 510.390898m-244.866837 0a244.866837 244.866837 0 1 0 489.733675 0 244.866837 244.866837 0 1 0-489.733675 0Z" fill="#70C4FF" p-id="3514"></path><path d="M525.76541 771.449955c-143.94883 0-261.059057-117.114275-261.059056-261.059057 0-143.94883 117.110226-261.059057 261.059056-261.059056 143.94883 0 261.059057 117.110226 261.059057 261.059056 0 143.94883-117.110226 261.059057-261.059057 261.059057z m0-489.733675c-126.09286 0-228.674618 102.581758-228.674617 228.674618 0 126.088812 102.581758 228.674618 228.674617 228.674618 126.088812 0 228.674618-102.585806 228.674618-228.674618 0-126.09286-102.581758-228.674618-228.674618-228.674618z" fill="#6E6E96" p-id="3515"></path><path d="M522.522919 273.640411s-24.510972 138.37061 28.826198 148.462411c53.329074 10.091801 76.382747-4.323323 103.779982 23.065817 27.381043 27.385091 88.915525 17.900498 90.805966-10.091801 0 0-37.476892-139.811718-223.412146-161.436427zM370.951601 694.010666s56.56347 8.602117 108.512158-13.071169c55.025209-22.952471 104.856764-77.97768 76.844225-143.426631-44.067125-102.921794-86.67695-48.467361-71.723435-129.262487 14.945418-80.795127-32.024162-112.993355-64.789118-112.993355-32.769004 0.008096-175.758445 213.64419-48.84383 398.753642z" fill="#A3D9FF" opacity=".26" p-id="3516"></path><path d="M359.074608 689.586142s49.070521 8.128494 94.145612-12.358712c47.734663-21.701622 90.980032-73.735319 66.667415-135.609837-38.237926-97.319286-75.204763-45.823981-62.234795-122.218871 12.978064-76.390843-27.785848-106.844359-56.207242-106.84436-28.429489 0-152.486178 201.997936-42.37099 377.03178z" fill="#A3D9FF" opacity=".26" p-id="3517"></path><path d="M368.445855 322.763556c77.767182 11.933666 49.750594 78.362246 71.678907 156.036322 14.224865 50.390187 35.71194 43.026775 54.952345 80.402465 29.388878 38.865375-112.426627 168.633868-188.461241 60.222912-75.374781-186.101225 61.82999-296.661699 61.829989-296.661699z" fill="#9EE3C3" p-id="3518"></path><path d="M381.561553 677.887263c-24.506924 0-59.700713-8.525203-88.199019-49.167674l-1.06059-1.509924-0.692218-1.708279c-41.176814-101.670945-21.037741-181.903392 3.108907-231.309902 26.15853-53.523381 62.052633-82.819154 63.566605-84.041666l5.557979-4.477149 7.059808 1.084879c66.460964 10.201098 70.687134 57.660493 74.775669 103.557338 1.740664 19.556153 3.712066 41.719253 10.031079 64.084757 6.990991 24.770048 15.180206 32.29943 25.551323 41.82855 8.638549 7.938236 18.402457 16.916821 27.65631 34.493476 5.396057 7.885611 11.36289 23.749938-0.87438 48.349967-18.863936 37.905986-72.581623 78.815628-126.481473 78.815627z m-60.635813-66.286898c16.293421 22.499089 36.683473 33.902459 60.635813 33.90246 43.273706 0 85.110353-35.987208 97.489305-60.862505 4.359755-8.755943 4.250458-14.17224 3.117002-15.67002l-0.841996-1.113215-0.639592-1.242753c-6.776444-13.164274-13.520503-19.361846-21.333249-26.543096-11.868897-10.90546-25.320583-23.268219-34.809224-56.87517-7.136721-25.276054-9.253853-49.042184-11.120006-70.007061-4.035911-45.30583-7.213634-65.635161-40.193137-73.067389-23.774226 22.171196-113.147181 118.875178-52.304916 271.478749z" fill="#6E6E96" p-id="3519"></path><path d="M546.592653 266.414633s-38.359368 130.756219 45.94947 130.756219c85.660888 0 101.719522 77.548587 155.283384 9.913687-57.134246-137.617672-201.232854-140.669906-201.232854-140.669906z" fill="#9EE3C3" p-id="3520"></path><path d="M706.409858 450.965453h-0.012145c-15.77527 0-29.401022-7.646776-43.816145-15.738837-18.260775-10.245627-38.95848-21.863544-70.043493-21.863544-29.445551 0-45.7835-13.560984-54.29656-24.93197-30.951427-41.334688-9.711284-117.972462-7.185297-126.574579l3.485375-11.893185 12.395144 0.263124c6.314966 0.133586 155.356249 4.950771 215.842284 150.648361l3.651346 8.796423-5.914208 7.464613c-18.276968 23.082009-35.469056 33.829594-54.106301 33.829594z m-147.442302-167.188713c-5.177462 24.377386-9.747716 65.323461 5.213895 85.264179 3.841604 5.124837 10.966181 11.937714 28.356624 11.937714 39.553544 0 66.335475 15.030428 85.891628 26.004704 11.083574 6.22186 20.661272 11.593629 27.976107 11.593629h0.044528c2.546226 0 9.516977-0.076913 22.478849-14.23296-44.548843-95.509806-136.314199-116.16703-169.961631-120.567266z" fill="#6E6E96" p-id="3521"></path><path d="M651.113429 720.768308s-55.179036-88.227355 0-124.975597c55.183084-36.756338 119.518819-34.598725 119.518819-85.409909 0 139.455489-119.518819 210.385506-119.518819 210.385506z" fill="#9EE3C3" p-id="3522"></path><path d="M645.774044 742.765438l-8.387569-13.411206c-0.615304-0.987725-15.200446-24.502876-22.640771-53.235969-10.755682-41.561379-1.028206-74.872822 27.397235-93.801526 20.835338-13.884828 42.419567-22.405984 61.457569-29.92727 36.902068-14.577045 50.847617-21.972842 50.847616-42.006665h32.384439c0 146.988919-122.24316 221.218101-127.448958 224.306767l-13.609561 8.075869z m100.545586-173.612976c-9.711284 5.01554-20.325283 9.209325-30.825937 13.358581-18.398409 7.266258-37.424267 14.779448-55.405727 26.757643-29.874645 19.89619-14.402979 64.275015-3.291068 87.733492 23.608256-18.179814 70.642605-61.291598 89.522732-127.849716z" fill="#6E6E96" p-id="3523"></path><path d="M523.603749 263.358352c-135.237416 0-244.866837 109.629421-244.866837 244.866837 0 135.233368 109.629421 244.862789 244.866837 244.862789 135.233368 0 244.862789-109.629421 244.862789-244.862789 0-135.237416-109.629421-244.866837-244.862789-244.866837z m176.879756 272.689118c-8.646645 30.182297-60.80988 20.85153-81.544016 43.297994-16.8561 18.264823-0.550535 69.909907-23.18321 80.827511a197.678662 197.678662 0 0 1-86.122367 19.608778c-34.165583 0 41.670677-62.348141 13.593368-77.560731-9.990599-5.408201-15.115437 24.405723-19.819276-41.824502-1.728519-24.312617-36.711809-35.594546-59.627848-91.267445-5.756334-13.986029-16.507968-112.46306-20.721993-106.840311-25.943983 34.594677-4.323323 143.009681 20.179553 199.625776 15.479762 35.784805-89.385099 97.983167-89.385098 42.379086 0-110.119236-49.706065-45.265349-42.694835-122.99205 9.848917-109.167943 88.854804-198.476129 198.476129-198.476129 46.24093 0 93.267183 13.29786 126.845798 39.909773 15.876471 12.577306 28.757382 28.142077 37.108519 46.670024 14.678247 32.526121-102.63843 11.617917-91.98395 16.957302 21.754247 10.889268 132.703334 51.353624 120.963975 48.163756-153.093386-41.60186-5.837295 35.375951 5.541787 46.775274 19.013714 18.989425-2.64338 37.35545-7.626536 54.745894z" fill="#6E6E96" opacity=".2" p-id="3524"></path></svg>