<?xml version="1.0" standalone="no"?><!DOCTYPE svg PUBLIC "-//W3C//DTD SVG 1.1//EN" "http://www.w3.org/Graphics/SVG/1.1/DTD/svg11.dtd"><svg t="1653917678073" class="icon" viewBox="0 0 1024 1024" version="1.1" xmlns="http://www.w3.org/2000/svg" p-id="19311" xmlns:xlink="http://www.w3.org/1999/xlink" width="200" height="200"><defs><style type="text/css">@font-face { font-family: feedback-iconfont; src: url("//at.alicdn.com/t/font_1031158_u69w8yhxdu.woff2?t=1630033759944") format("woff2"), url("//at.alicdn.com/t/font_1031158_u69w8yhxdu.woff?t=1630033759944") format("woff"), url("//at.alicdn.com/t/font_1031158_u69w8yhxdu.ttf?t=1630033759944") format("truetype"); }
</style></defs><path d="M958.805333 791.950222c0 124.416-200.021333 225.336889-446.805333 225.336889s-446.805333-100.920889-446.805333-225.336889S265.216 566.556444 512 566.556444s446.805333 100.864 446.805333 225.336889z m0 0" fill="#64A5FF" p-id="19312"></path><path d="M682.666667 741.432889c0 51.2-76.458667 92.956444-170.666667 92.956444s-170.666667-41.642667-170.666667-92.956444S417.735111 648.533333 512 648.533333s170.666667 41.642667 170.666667 92.956445z m0 0" fill="#3D5AFE" p-id="19313"></path><path d="M512 6.712889c-170.666667 0-304.355556 127.772444-304.355556 290.816 0 159.004444 275.342222 417.735111 287.061334 428.657778l17.066666 16.156444 17.066667-16.156444c11.719111-10.922667 287.061333-269.653333 287.061333-428.657778C816.355556 134.485333 682.666667 6.712889 512 6.712889z m0 665.6" fill="#0251BF" p-id="19314"></path><path d="M423.367111 145.806222a22.414222 22.414222 0 0 0-22.414222 22.414222v313.856a22.414222 22.414222 0 0 0 44.828444 0V168.220444a22.414222 22.414222 0 0 0-22.414222-22.414222zM602.737778 145.806222H513.024a22.414222 22.414222 0 0 0-22.414222 22.414222v313.856a22.414222 22.414222 0 0 0 44.828444 0V369.777778h67.242667a112.071111 112.071111 0 0 0 0-224.142222z m0 179.313778H535.438222V190.634667h67.242667a67.242667 67.242667 0 1 1 0 134.485333z" fill="#FFEA00" p-id="19315"></path></svg>