<?xml version="1.0" standalone="no"?><!DOCTYPE svg PUBLIC "-//W3C//DTD SVG 1.1//EN" "http://www.w3.org/Graphics/SVG/1.1/DTD/svg11.dtd"><svg t="1653917968384" class="icon" viewBox="0 0 1024 1024" version="1.1" xmlns="http://www.w3.org/2000/svg" p-id="24230" xmlns:xlink="http://www.w3.org/1999/xlink" width="200" height="200"><defs><style type="text/css">@font-face { font-family: feedback-iconfont; src: url("//at.alicdn.com/t/font_1031158_u69w8yhxdu.woff2?t=1630033759944") format("woff2"), url("//at.alicdn.com/t/font_1031158_u69w8yhxdu.woff?t=1630033759944") format("woff"), url("//at.alicdn.com/t/font_1031158_u69w8yhxdu.ttf?t=1630033759944") format("truetype"); }
</style></defs><path d="M511.488 90.5728c-173.312 0-311.7056 138.4448-311.7056 311.7056 0 69.2224 23.0912 127.1296 57.9584 178.944l254.3104 352.2048 254.3104-352.2048c34.8672-51.7632 57.9584-115.3536 57.9584-178.944-1.1264-173.312-139.52-311.7056-312.832-311.7056z" fill="#D81E06" p-id="24231"></path><path d="M669.44 465.408c-1.8944 45.1584-16.9472 77.2608-45.1584 96.3072-28.2112 19.0464-62.0544 28.5184-101.5808 28.5184-45.1584 0-83.712-11.5712-115.6608-34.7648-32-23.1936-47.9744-60.3136-47.9744-111.4624 0-55.8592 15.5136-97.4848 46.5408-124.8256 31.0272-27.3408 71.0144-41.0112 119.9104-41.0112 41.3696 0 75.7248 9.8304 102.9632 29.44 27.2896 19.6096 39.936 47.2576 38.0928 82.944h-62.0544c0-26.1632-6.6048-45.7728-19.7632-58.8288-13.1584-13.056-32.9216-19.6096-59.2384-19.6096-30.1056 0-54.0672 9.8304-71.936 29.44-17.8688 19.6096-26.7776 52.5824-26.7776 98.9696 0 42.8032 8.9088 72.8064 26.7776 90.0608 17.8688 17.2544 40.9088 25.856 69.12 25.856 20.6848 0 39.4752-6.2464 56.4224-18.7392s25.3952-36.5568 25.3952-72.2432h64.9216z" fill="#F2F2F2" p-id="24232"></path></svg>