<?xml version="1.0" standalone="no"?><!DOCTYPE svg PUBLIC "-//W3C//DTD SVG 1.1//EN" "http://www.w3.org/Graphics/SVG/1.1/DTD/svg11.dtd"><svg t="1653914667927" class="icon" viewBox="0 0 1024 1024" version="1.1" xmlns="http://www.w3.org/2000/svg" p-id="2227" xmlns:xlink="http://www.w3.org/1999/xlink" width="200" height="200"><defs><style type="text/css">@font-face { font-family: feedback-iconfont; src: url("//at.alicdn.com/t/font_1031158_u69w8yhxdu.woff2?t=1630033759944") format("woff2"), url("//at.alicdn.com/t/font_1031158_u69w8yhxdu.woff?t=1630033759944") format("woff"), url("//at.alicdn.com/t/font_1031158_u69w8yhxdu.ttf?t=1630033759944") format("truetype"); }
</style></defs><path d="M1024 522.8h-13.6C1010.4 248 786.8 24.8 512 24.8S13.6 248 13.6 522.8H0c0-282.4 229.6-512 512-512s512 229.6 512 512z" fill="#4A555F" p-id="2228"></path><path d="M993.6 504C983.6 246.8 771.6 40.8 512 40.8S40.4 246.8 30.4 504h963.2z" fill="#FFD552" p-id="2229"></path><path d="M987.2 529.6h-13.6V516h13.6v13.6z m-27.6 0h-13.6V516h13.6v13.6z m-27.6 0h-13.6V516h13.6v13.6z m-27.6 0h-13.6V516h13.6v13.6z m-27.6 0h-13.6V516h13.6v13.6z m-27.6 0h-13.6V516h13.6v13.6z m-27.6 0H808V516h13.6v13.6z m-27.6 0H780V516h13.6v13.6z m-27.6 0h-13.6V516h13.6v13.6z m-27.6 0h-13.6V516h13.6v13.6z m-27.6 0h-13.6V516h13.6v13.6z m-27.6 0h-13.6V516h13.6v13.6z m-27.6 0h-13.6V516h13.6v13.6z m-27.6 0h-13.6V516h13.6v13.6z m-27.6 0h-13.6V516h13.6v13.6z m-27.6 0h-13.6V516h13.6v13.6z m-27.6 0H532V516h13.6v13.6z m-27.6 0H504V516h13.6v13.6z m-27.6 0h-13.6V516h13.6v13.6z m-27.6 0h-13.6V516h13.6v13.6z m-27.6 0h-13.6V516h13.6v13.6z m-27.6 0h-13.6V516h13.6v13.6z m-27.6 0h-13.6V516H380v13.6z m-27.6 0h-13.6V516h13.6v13.6z m-27.6 0h-13.6V516h13.6v13.6z m-27.6 0h-13.6V516h13.6v13.6z m-27.6 0H256V516h13.6v13.6z m-27.6 0h-13.6V516h13.6v13.6z m-27.6 0h-13.6V516h13.6v13.6z m-27.6 0h-13.6V516h13.6v13.6z m-27.6 0h-13.6V516h13.6v13.6z m-27.6 0h-13.6V516h13.6v13.6z m-27.6 0h-13.6V516H104v13.6z m-27.6 0h-13.6V516h13.6v13.6z m-27.6 0H35.2V516h13.6v13.6zM844.4 1013.2h-660c-49.6 0-90-40.4-90-90v-343.6l104.8 114.8h645.2c49.6 0 90 40.4 90 90v139.2c0 49.2-40.4 89.6-90 89.6z m-736-398v308c0 42 34 76 76 76h660c42 0 76-34 76-76V784c0-42-34-76-76-76H193.2l-84.8-92.8z" fill="#4A555F" p-id="2230"></path><path d="M184.4 983.2c-33.2 0-60-26.8-60-60v-266.8L186 724h658.4c33.2 0 60 26.8 60 60v139.2c0 33.2-26.8 60-60 60h-660z" fill="#71CDE1" p-id="2231"></path><path d="M505.2 17.6h13.6V504h-13.6z" fill="#4A555F" p-id="2232"></path><path d="M766.4 504h-13.6v-21.6c0-252.4-108-458-240.8-458S271.2 230 271.2 482.4v21.6h-13.6v-21.6c0-125.2 26-243.2 73.2-332 48-90 112.4-139.6 181.2-139.6 68.8 0 133.2 49.6 181.2 139.6 47.2 88.8 73.2 206.8 73.2 332v21.6z" fill="#4A555F" p-id="2233"></path><path d="M512 347.2c-286.8 0-386.4-144.8-390.4-150.8l11.6-7.6c0.8 1.6 100 144.8 378.8 144.8s378-143.2 378.8-144.8l11.6 7.6c-4 6-103.6 150.8-390.4 150.8zM301.6 908h-12.8l-38.8-104 12.8-4.8 32.4 87.2 25.6-64 12.8 0.4 24 62.4 29.2-85.6 13.2 4.4-35.6 103.6-12.8 0.4-24.4-64zM409.2 894.4h13.6v13.2h-13.6zM488.8 908H476l-38.8-104 12.8-4.8 32.4 87.2 25.6-64 12.8 0.4 24 62.4 29.2-85.6 12.8 4.4-35.2 103.6-12.8 0.4-24.4-64zM676 908h-13.2l-38.4-104 12.8-4.8 32.4 87.2 25.6-64 12.8 0.4 24 62.4 29.2-85.6 12.8 4.4-35.2 103.6-12.8 0.4-24.4-64zM596.8 894.4h13.6v13.2h-13.6z" fill="#4A555F" p-id="2234"></path></svg>