<?xml version="1.0" standalone="no"?><!DOCTYPE svg PUBLIC "-//W3C//DTD SVG 1.1//EN" "http://www.w3.org/Graphics/SVG/1.1/DTD/svg11.dtd"><svg t="1653918034882" class="icon" viewBox="0 0 1024 1024" version="1.1" xmlns="http://www.w3.org/2000/svg" p-id="28568" xmlns:xlink="http://www.w3.org/1999/xlink" width="200" height="200"><defs><style type="text/css">@font-face { font-family: feedback-iconfont; src: url("//at.alicdn.com/t/font_1031158_u69w8yhxdu.woff2?t=1630033759944") format("woff2"), url("//at.alicdn.com/t/font_1031158_u69w8yhxdu.woff?t=1630033759944") format("woff"), url("//at.alicdn.com/t/font_1031158_u69w8yhxdu.ttf?t=1630033759944") format("truetype"); }
</style></defs><path d="M900 467v389.5c0 6.5-5.5 11.5-11.5 11.5H144c-6.5 0-11.5-5.5-11.5-11.5V467l364-252.5c11-7.5 30-7 41.5 1l363 251.5h-1z" fill="#9C0000" p-id="28569"></path><path d="M196 288h640v419H196z" fill="#E8E8D0" p-id="28570"></path><path d="M560.5 600c-15 17.5-36 29.5-59.5 29.5h-5c-21.5-1.5-39.5-13-52-30.5-12-16.5-18-36.5-19-56.5v-7.5c0-3 0-6 0.5-9 2-25.5 11-51 27.5-70.5 15.5-18 36.5-31 61-31h5c18.5 1.5 35 10.5 47 24l1.5-24 29 1.5-9.5 154.5c-0.5 8 2.5 15 9 19.5 3.5 2.5 7.5 3 11.5 3 23.5-1 42.5-21 51.5-41.5 10-22 13-52 7-75v-1c-7-25.5-20.5-49-39.5-68-28.5-28.5-67-44.5-108-44.5-40.5 0-79 16-108 44.5-28.5 28.5-44.5 67-44.5 108 0 40.5 16 79 44.5 108 28.5 28.5 67 44.5 108 44.5 32.5 0 64-10 90-29.5l11.5-8.5v36l-3.5 2c-29.5 19-63.5 29-98.5 29-48.5 0-94-19-128.5-53-34-34-53-80-53-128.5s19-94 53-128.5c34-34 80-53 128.5-53s94 19 128.5 53c22.5 22.5 38.5 50.5 47 81v0.5c6.5 29.5 4.5 65-8 92.5-14 31-42 59-78 60.5-10.5 0.5-20.5-2-29-8-9-6-14.5-15-18-24.5v1z m-106.5-62.5c0.5 15.5 4.5 31.5 13.5 44 7.5 10 18 17.5 31 18.5h2.5c15.5 0 29-9 38.5-20.5 12.5-15 19.5-34.5 21-54v-9.5c-0.5-15.5-4.5-31.5-13.5-44-7.5-10-18-17.5-31-18.5h-2.5c-15.5 0-29 9-38.5 20.5-12.5 15-19.5 34.5-21 54v9.5z" fill="#37474F" p-id="28571"></path><path d="M134 862.5l304-208-306-187.5v389c0 2.5 0.5 4.5 2 6v0.5zM900 856.5V467h-0.5l-308 189 306.5 206.5c1-2 2-4 2-6z" fill="#BF0000" p-id="28572"></path><path d="M898.5 862.5c-2 3.5-6 5.5-10 5.5H144c-4 0-8-2-10-5.5l362-251.5c11-7.5 29.5-7 41.5 1l361 250.5z" fill="#D50000" p-id="28573"></path></svg>